<svg xmlns="http://www.w3.org/2000/svg" width="188.257" height="52.44"><path d="M78.172 52.315h-1.113v-9.168h1.237c2.721 0 3.587 1 3.587 2.637 0 1.884-1.484 2.637-3.092 2.637h-.618zm0-4.9h.371c1.113 0 2.35-.251 2.35-1.633s-1.36-1.635-2.473-1.635h-.247v3.27zM86.459 50.054l-.99 2.261h-1.236l4.329-9.545 4.329 9.545h-1.237l-1.113-2.261zm2.1-4.772l-1.608 3.642h3.216zM102.168 52.315h-1.361l-2.6-3.893h-.495v3.893h-1.11v-9.168h1.361a5.144 5.144 0 012.35.377 2.6 2.6 0 011.237 2.135 2.45 2.45 0 01-2.1 2.512zm-4.576-4.768h.371c1.113 0 2.35-.251 2.35-1.633s-1.361-1.637-2.474-1.637h-.247zM106.621 43.147h1.113v9.168h-1.113zM116.764 44.905a1.5 1.5 0 00-1.484-.879 1.392 1.392 0 00-1.484 1.256c0 .754.742 1.13 1.237 1.256l.618.251c1.237.5 2.226 1.256 2.226 2.763a2.821 2.821 0 01-2.845 2.889 2.722 2.722 0 01-2.721-2.512l1.113-.251a1.7 1.7 0 001.732 1.758 1.678 1.678 0 001.608-1.758c0-1-.742-1.381-1.608-1.758l-.618-.251c-.99-.5-1.979-1-1.979-2.261a2.423 2.423 0 012.6-2.386 2.645 2.645 0 012.35 1.381zM29.191.447c-.247-.5-.495-.5-.99-.377l-1.484.5a15.081 15.081 0 00-5.071 3.642C14.967 10.743 5.319 27.446.371 40.005A3.435 3.435 0 000 41.512c0 .628.618.879 1.732.754 4.329-10.673 13.606-29.51 22.14-37.172l1.237-1h.247v.628a82.6 82.6 0 01-1.113 10.3c-.866 4.9-2.226 10.8-2.721 12.81a17.1 17.1 0 00-.99 5.149c0 .628.124.754.866.754a7.975 7.975 0 003.092-1.256c.495-.377 1.113-.879 2.226-3.14 1.484-3.021 5.443-11.938 10.144-17.84l.74-.879h.124l-.124 1.13a51.766 51.766 0 00-.618 7.41c0 4.144.371 8.666 1.361 11.554.742 2.009 1.732 2.889 2.969 2.889a3.393 3.393 0 002.6-1.381c-1.732-2.637-2.721-8.289-2.721-13.564a72.924 72.924 0 01.371-7.786 21.835 21.835 0 00.371-3.14c0-.5-.124-.879-.618-.754a9.318 9.318 0 00-2.474.754c-1.484.628-2.474 1.633-4.577 4.4a94.87 94.87 0 00-9.65 17.324h-.124l1.11-4.519c2.6-10.047 3.958-16.7 3.958-21.1a7.3 7.3 0 00-.371-3.391M48.116 17.271a12.636 12.636 0 015.566-1c5.442 0 6.927 3.014 6.927 6.154v9.67a39.826 39.826 0 01-7.05.628c-3.092 0-6.679-.754-6.679-4.772 0-2.135 1.113-3.893 5.813-4.521l4.824-.628v-.377c0-2.763-1.361-3.768-4.205-3.768a11.177 11.177 0 00-5.071 1.256v-2.642zm9.277 12.81v-5.019l-3.587.377c-2.474.251-3.587.879-3.587 2.386 0 1.633 1.113 2.512 4.082 2.512a9.266 9.266 0 003.092-.251M71.122 16.145a10.931 10.931 0 012.721.251v2.637a10.977 10.977 0 00-3.092-.377 11.207 11.207 0 00-3.463.628v13.188h-3.216V17.778a14.533 14.533 0 017.05-1.633M91.16 16.145c5.195 0 8.411 3.642 8.411 8.163 0 4.9-3.216 8.289-8.658 8.289-5.195 0-8.535-3.642-8.535-8.163 0-4.773 3.34-8.289 8.782-8.289m-5.442 8.289c0 3.642 1.855 5.777 5.442 5.777 2.35 0 5.071-1.381 5.071-5.651 0-3.642-1.855-5.777-5.442-5.777-2.35 0-5.071 1.381-5.071 5.651M109.716 16.145c5.071 0 7.421 1.633 7.421 6.782v9.545h-3.221v-9.294c0-3.642-1.979-4.4-4.824-4.4a10.586 10.586 0 00-3.463.628v13.066h-3.213V17.778a17 17 0 017.3-1.633M127.898 16.145c5.071 0 7.421 1.633 7.421 6.782v9.545h-3.221v-9.294c0-3.642-1.855-4.4-4.7-4.4a11.978 11.978 0 00-3.587.628v13.066h-3.213V17.778a17.456 17.456 0 017.3-1.633M181.454 32.723c-5.813 0-9.277-3.014-9.277-7.912 0-5.9 4.205-8.54 9.029-8.54a10.637 10.637 0 013.834.628V7.731h3.216V31.97a31.37 31.37 0 01-6.8.754m3.587-3.014V19.411a10.586 10.586 0 00-3.466-.628c-2.6 0-5.937.754-5.937 5.651 0 4.144 2.721 5.651 6.185 5.651a15.812 15.812 0 003.216-.377M148.552 30.086v-5.024l-3.587.377c-2.474.251-3.587.879-3.587 2.386 0 1.633 1.113 2.512 4.082 2.512a9.052 9.052 0 003.092-.251m-9.153-12.815a12.635 12.635 0 015.566-1c5.442 0 6.927 3.014 6.927 6.154v9.67a39.826 39.826 0 01-7.05.628c-3.092 0-6.679-.754-6.679-4.772 0-2.135 1.113-3.893 5.813-4.521l4.824-.628v-.377c0-2.763-1.361-3.768-4.205-3.768a11.177 11.177 0 00-5.071 1.256v-2.642zM76.317 16.522h3.216v15.95h-3.216zM76.317 9.74h3.216v3.14h-3.216zM162.16 32.722c-5.071 0-7.3-1.633-7.3-6.782v-9.418h3.216v9.294c0 3.642 1.855 4.4 4.7 4.4a9.863 9.863 0 003.34-.628V16.522h3.216v14.694a16.932 16.932 0 01-7.172 1.506"/></svg>